<?xml version="1.0" encoding="UTF-8"?>
<svg xmlns="http://www.w3.org/2000/svg" xmlns:xlink="http://www.w3.org/1999/xlink" width="50pt" height="50pt" viewBox="0 0 50 50" version="1.1">
<g id="surface197725">
<path style=" stroke:none;fill-rule:nonzero;fill:rgb(100%,100%,100%);fill-opacity:1;" d="M 0 25 C 0 11.191406 11.191406 0 25 0 C 38.808594 0 50 11.191406 50 25 C 50 38.808594 38.808594 50 25 50 C 11.191406 50 0 38.808594 0 25 Z M 25 49 C 38.253906 49 49 38.253906 49 25 C 49 11.746094 38.253906 1 25 1 C 11.746094 1 1 11.746094 1 25 C 1 38.253906 11.746094 49 25 49 Z M 25 49 "/>
<path style=" stroke:none;fill-rule:nonzero;fill:rgb(0%,0%,0%);fill-opacity:1;" d="M 26.5625 7.0625 C 26.089844 7.0625 25.625 7.238281 25.269531 7.597656 L 15.324219 17.519531 L 13.105469 19.761719 L 12.324219 16.128906 C 11.855469 13.996094 9.664062 12.726562 7.574219 13.351562 L 7.0625 13.496094 L 8.863281 26.148438 C 8.667969 28.097656 9.320312 30.113281 10.816406 31.605469 L 13.640625 34.433594 C 14.78125 35.574219 16.25 36.21875 17.738281 36.359375 L 11.863281 26.121094 C 11.480469 25.453125 11.644531 24.601562 12.253906 24.125 L 12.667969 23.808594 C 13.613281 23.058594 14.753906 22.660156 15.957031 22.660156 C 17.726562 22.660156 19.375 23.535156 20.371094 25 L 20.855469 25.707031 L 20.980469 25.441406 L 26.488281 12.644531 L 21.027344 18.101562 L 20.492188 17.566406 L 27.851562 10.179688 C 28.570312 9.464844 28.570312 8.3125 27.851562 7.597656 C 27.496094 7.242188 27.03125 7.0625 26.5625 7.0625 Z M 31.753906 8.183594 C 31.265625 8.183594 30.785156 8.371094 30.410156 8.742188 L 28.390625 10.742188 C 28.78125 10.585938 29.21875 10.496094 29.65625 10.496094 C 30.121094 10.496094 30.570312 10.582031 30.996094 10.765625 C 31.335938 10.914062 31.628906 11.113281 31.898438 11.351562 C 32.292969 10.664062 32.910156 10.152344 33.628906 9.863281 C 33.582031 9.453125 33.40625 9.058594 33.09375 8.742188 C 32.722656 8.371094 32.238281 8.183594 31.753906 8.183594 Z M 34.921875 11.179688 C 34.179688 11.175781 33.480469 11.601562 33.167969 12.324219 L 27.902344 24.488281 L 27.195312 24.195312 L 31.339844 14.617188 C 31.742188 13.6875 31.292969 12.605469 30.363281 12.203125 C 29.433594 11.800781 28.375 12.226562 27.972656 13.15625 L 22.394531 26.050781 L 21.148438 28.949219 L 19.078125 25.878906 C 17.851562 24.070312 15.359375 23.671875 13.640625 25.027344 L 13.226562 25.34375 L 19.566406 36.433594 C 20.101562 38.320312 21.453125 39.957031 23.390625 40.796875 L 27.074219 42.40625 C 30.445312 43.859375 34.367188 42.289062 35.824219 38.917969 L 39.820312 29.632812 L 42.792969 22.78125 C 43.207031 21.828125 42.75 20.707031 41.796875 20.296875 C 40.839844 19.886719 39.746094 20.316406 39.332031 21.273438 L 36.359375 28.144531 L 35.703125 27.851562 L 40.382812 17.03125 C 40.800781 16.058594 40.355469 14.914062 39.382812 14.496094 C 38.410156 14.078125 37.265625 14.523438 36.847656 15.496094 L 32.167969 26.339844 L 31.410156 26 L 36.652344 13.835938 C 37.070312 12.871094 36.644531 11.742188 35.675781 11.328125 C 35.4375 11.222656 35.167969 11.183594 34.921875 11.179688 Z M 34.921875 11.179688 "/>
</g>
</svg>
